<svg xmlns="http://www.w3.org/2000/svg" viewBox="0 0 48 46">
    <defs>
        <style>.cls-1{fill:#201602;}</style>
    </defs>
    <title>Asset 43ldpi</title>
    <g id="Layer_2" data-name="Layer 2">
        <g id="layer_1-2" data-name="layer 1">
            <path class="cls-1"
                  d="M45,30H3a1,1,0,0,1-1-1V1A1,1,0,0,1,3,0H45a1,1,0,0,1,1,1V29A1,1,0,0,1,45,30ZM4,28H44V2H4Z"/>
            <path class="cls-1" d="M42,10H40V6H36V4h5a1,1,0,0,1,1,1Z"/>
            <path class="cls-1" d="M41,26H36V24h4V20h2v5A1,1,0,0,1,41,26Z"/>
            <path class="cls-1" d="M12,26H7a1,1,0,0,1-1-1V20H8v4h4Z"/>
            <path class="cls-1" d="M8,10H6V5A1,1,0,0,1,7,4h5V6H8Z"/>
            <rect class="cls-1" x="6" y="14" width="5" height="2"/>
            <rect class="cls-1" x="37" y="14" width="5" height="2"/>
            <path class="cls-1"
                  d="M24,24a1,1,0,0,1-.69-.28c-.06,0-5.56-5.3-7.7-7.4a5.44,5.44,0,0,1,0-7.72A5.42,5.42,0,0,1,19.46,7h0a5.37,5.37,0,0,1,3.81,1.6c.23.23.48.52.71.79.23-.27.48-.56.71-.79A5.37,5.37,0,0,1,28.52,7h0a5.45,5.45,0,0,1,3.85,9.32c-2.13,2.1-7.64,7.35-7.7,7.4A1,1,0,0,1,24,24ZM19.46,9A3.43,3.43,0,0,0,17,10a3.48,3.48,0,0,0-1,2.48,3.37,3.37,0,0,0,1,2.41c1.68,1.64,5.44,5.24,7,6.72,1.55-1.48,5.32-5.08,7-6.72a3.37,3.37,0,0,0,1-2.42A3.47,3.47,0,0,0,31,10a3.43,3.43,0,0,0-2.44-1h0a3.37,3.37,0,0,0-2.4,1,20.45,20.45,0,0,0-1.33,1.6A1,1,0,0,1,24,12h0a1,1,0,0,1-.8-.39A20.45,20.45,0,0,0,21.87,10a3.37,3.37,0,0,0-2.4-1Z"/>
            <rect class="cls-1" x="17" y="32" width="25" height="2"/>
            <rect class="cls-1" y="32" width="15" height="2"/>
            <rect class="cls-1" x="6" y="36" width="42" height="2"/>
            <rect class="cls-1" x="32" y="40" width="13" height="2"/>
            <rect class="cls-1" x="3" y="40" width="27" height="2"/>
            <rect class="cls-1" x="5" y="44" width="42" height="2"/>
        </g>
    </g>
</svg>
