<?xml version="1.0" encoding="utf-8"?>
<!-- Generator: Adobe Illustrator 16.0.0, SVG Export Plug-In . SVG Version: 6.00 Build 0)  -->
<!DOCTYPE svg PUBLIC "-//W3C//DTD SVG 1.0//EN" "http://www.w3.org/TR/2001/REC-SVG-20010904/DTD/svg10.dtd">
<svg version="1.0" id="Layer_1" xmlns="http://www.w3.org/2000/svg" x="0px" y="0px"
     width="100px" height="100px" viewBox="0 0 100 100" enable-background="new 0 0 100 100" xml:space="preserve">
<path d="M55,75c0,2.764-2.243,5-5,5c-2.761,0-5-2.236-5.003-5c0.003-2.764,2.242-5,5-5C52.761,70,54.997,72.236,55,75z"/>
    <path d="M72.526,56.003l4.713-4.721c-5.667-5.664-12.676-9.186-20.01-10.579L72.526,56.003z"/>
    <path d="M49.89,33.362c11.607-0.029,23.226,4.372,32.063,13.207l4.714-4.714C74.919,30.11,58.938,25.221,43.633,27.106L49.89,33.362
	z"/>
    <path d="M27.097,20l-4.714,4.713l6.484,6.485c-5.632,2.506-10.915,6.038-15.534,10.657l4.711,4.714
	c4.671-4.668,10.12-8.073,15.931-10.264l5.29,5.289c-6.042,1.738-11.752,4.936-16.504,9.688l4.71,4.717
	c4.899-4.896,11.013-7.799,17.373-8.824l6.224,6.224c-6.803-0.286-13.697,2.132-18.88,7.314l4.714,4.714
	c7.22-7.227,18.975-7.221,26.194,0l7.907,7.906l4.713-4.713L27.097,20z"/>
</svg>
