<?xml version="1.0" encoding="iso-8859-1"?>
<!-- Generator: Adobe Illustrator 19.0.0, SVG Export Plug-In . SVG Version: 6.00 Build 0)  -->
<svg version="1.1" id="Layer_1" xmlns="http://www.w3.org/2000/svg" x="0px" y="0px"
     viewBox="0 0 512 512" style="enable-background:new 0 0 512 512;" xml:space="preserve">
<g>
	<g>
		<path d="M371.093,0H149.227c-18.773,0-34.133,15.36-34.133,34.133v443.733c0,18.773,15.36,34.133,34.133,34.133h221.867
			c18.773,0,34.133-15.36,34.133-34.133V34.133C405.227,15.36,389.867,0,371.093,0z M388.16,477.867
			c0,9.387-7.68,17.067-17.067,17.067H149.227c-9.387,0-17.067-7.68-17.067-17.067V34.133c0-9.387,7.68-17.067,17.067-17.067
			h221.867c9.387,0,17.067,7.68,17.067,17.067V477.867z"/>
	</g>
</g>
    <g>
	<g>
		<path d="M115.093,51.2v392.533h290.133V51.2H115.093z M388.16,426.667h-256v-358.4h256V426.667z"/>
	</g>
</g>
    <g>
	<g>
		<path d="M294.293,25.6h-42.667c-5.12,0-8.533,3.413-8.533,8.533c0,5.12,3.413,8.533,8.533,8.533h42.667
			c5.12,0,8.533-3.413,8.533-8.533C302.827,29.013,299.413,25.6,294.293,25.6z"/>
	</g>
</g>
    <g>
	<g>
		<path d="M226.027,25.6h-8.533c-5.12,0-8.533,3.413-8.533,8.533c0,5.12,3.413,8.533,8.533,8.533h8.533
			c5.12,0,8.533-3.413,8.533-8.533C234.56,29.013,231.147,25.6,226.027,25.6z"/>
	</g>
</g>
    <g>
	<g>
		<path d="M115.093,76.8c-5.12,0-8.533,3.413-8.533,8.533v8.533c0,5.12,3.413,8.533,8.533,8.533c5.12,0,8.533-3.413,8.533-8.533
			v-8.533C123.627,80.213,120.213,76.8,115.093,76.8z"/>
	</g>
</g>
    <g>
	<g>
		<path d="M115.093,110.933c-5.12,0-8.533,3.413-8.533,8.533V128c0,5.12,3.413,8.533,8.533,8.533c5.12,0,8.533-3.413,8.533-8.533
			v-8.533C123.627,114.347,120.213,110.933,115.093,110.933z"/>
	</g>
</g>
    <g>
	<g>
		<path d="M115.093,145.067c-5.12,0-8.533,3.413-8.533,8.533v8.533c0,5.12,3.413,8.533,8.533,8.533c5.12,0,8.533-3.413,8.533-8.533
			V153.6C123.627,148.48,120.213,145.067,115.093,145.067z"/>
	</g>
</g>
    <g>
	<g>
		<path d="M260.16,435.2c-18.773,0-34.133,15.36-34.133,34.133c0,18.773,15.36,34.133,34.133,34.133s34.133-15.36,34.133-34.133
			C294.293,450.56,278.933,435.2,260.16,435.2z M260.16,486.4c-9.387,0-17.067-7.68-17.067-17.067s7.68-17.067,17.067-17.067
			s17.067,7.68,17.067,17.067S269.547,486.4,260.16,486.4z"/>
	</g>
</g>
    <g>
	<g>
		<path d="M362.56,179.2H308.8l-6.827-19.627c-0.853-3.413-4.267-5.973-7.68-5.973h-68.267c-3.413,0-6.827,2.56-7.68,5.973
			L211.52,179.2h-53.76c-5.12,0-8.533,3.413-8.533,8.533v136.533c0,5.12,3.413,8.533,8.533,8.533h204.8
			c5.12,0,8.533-3.413,8.533-8.533V187.733C371.093,182.613,367.68,179.2,362.56,179.2z M354.027,315.733H166.293V196.267h51.2
			c3.413,0,6.827-2.56,7.68-5.973L232,170.667h56.32l6.827,19.627c0.853,3.413,4.267,5.973,7.68,5.973h51.2V315.733z"/>
	</g>
</g>
    <g>
	<g>
		<path d="M260.16,204.8c-23.893,0-42.667,18.773-42.667,42.667s18.773,42.667,42.667,42.667s42.667-18.773,42.667-42.667
			S284.053,204.8,260.16,204.8z M260.16,273.067c-14.507,0-25.6-11.093-25.6-25.6s11.093-25.6,25.6-25.6s25.6,11.093,25.6,25.6
			S274.667,273.067,260.16,273.067z"/>
	</g>
</g>
    <g>
	<g>
		<path d="M80.96,34.133c-14.507,0-25.6-11.093-25.6-25.6c0-11.093-17.067-11.093-17.067,0c0,14.507-11.093,25.6-25.6,25.6
			C1.6,34.133,1.6,51.2,12.693,51.2c14.507,0,25.6,11.093,25.6,25.6c0,11.093,17.067,11.093,17.067,0
			c0-14.507,11.093-25.6,25.6-25.6C92.053,51.2,92.053,34.133,80.96,34.133z M46.827,51.2c-2.56-3.413-5.12-5.973-8.533-8.533
			c3.413-2.56,5.973-5.12,8.533-8.533c2.56,3.413,5.12,5.973,8.533,8.533C51.947,45.227,49.387,47.787,46.827,51.2z"/>
	</g>
</g>
    <g>
	<g>
		<path d="M464.96,119.467c-5.12,0-8.533,3.413-8.533,8.533v34.133c0,5.12,3.413,8.533,8.533,8.533s8.533-3.413,8.533-8.533V128
			C473.493,122.88,470.08,119.467,464.96,119.467z"/>
	</g>
</g>
    <g>
	<g>
		<path d="M482.027,136.533h-34.133c-5.12,0-8.533,3.413-8.533,8.533c0,5.12,3.413,8.533,8.533,8.533h34.133
			c5.12,0,8.533-3.413,8.533-8.533C490.56,139.947,487.147,136.533,482.027,136.533z"/>
	</g>
</g>
    <g>
	<g>
		<path d="M63.893,366.933c-5.12,0-8.533,3.413-8.533,8.533S58.773,384,63.893,384s8.533-3.413,8.533-8.533
			S69.013,366.933,63.893,366.933z"/>
	</g>
</g>
    <g>
	<g>
		<path d="M21.227,213.333c-5.12,0-8.533,3.413-8.533,8.533s3.413,8.533,8.533,8.533s8.533-3.413,8.533-8.533
			S26.347,213.333,21.227,213.333z"/>
	</g>
</g>
    <g>
	<g>
		<path d="M439.36,298.667c-5.12,0-8.533,3.413-8.533,8.533s3.413,8.533,8.533,8.533s8.533-3.413,8.533-8.533
			S444.48,298.667,439.36,298.667z"/>
	</g>
</g>
    <g>
	<g>
		<path d="M499.093,477.867c-5.12,0-8.533,3.413-8.533,8.533s3.413,8.533,8.533,8.533s8.533-3.413,8.533-8.533
			S504.213,477.867,499.093,477.867z"/>
	</g>
</g>
    <g>
</g>
    <g>
</g>
    <g>
</g>
    <g>
</g>
    <g>
</g>
    <g>
</g>
    <g>
</g>
    <g>
</g>
    <g>
</g>
    <g>
</g>
    <g>
</g>
    <g>
</g>
    <g>
</g>
    <g>
</g>
    <g>
</g>
</svg>
